<svg version="1.0" xmlns="http://www.w3.org/2000/svg" width="225.000000pt" height="225.000000pt" viewBox="0 0 225.000000 225.000000" preserveAspectRatio="xMidYMid meet">
	<g transform="translate(0.000000,225.000000) scale(0.100000,-0.100000)" fill="#999999" stroke="none">
		<path d="M170 1359 c0 -358 7 -411 69 -506 49 -76 109 -128 188 -165 185 -87 422 -19 534 154 51 80 69 143 69 245 0 46 4 83 8 83 4 0 18 -21 31 -46 12 -26 44 -82 72 -124 27 -42 49 -85 49 -94 0 -9 -29 -152 -65 -318 -36 -165 -65 -304 -65 -309 0 -5 49 -9 109 -9 96 0 110 2 115 18 3 9 24 114 47 232 23 118 43 216 44 218 1 1 31 -11 65 -27 86 -41 157 -54 266 -49 81 3 100 8 166 41 166 82 256 240 246 434 -4 69 -10 93 -42 157 -165 334 -615 336 -781 3 -19 -38 -35 -76 -35 -83 0 -32 -22 -8 -69 75 -52 92 -130 267 -152 339 l-12 42 -108 0 -108 0 -3 -317 c-3 -303 -4 -320 -25 -358 -40 -76 -105 -115 -188 -115 -83 0 -148 39 -188 115 -21 38 -22 55 -25 358 l-3 317 -105 0 -104 0 0 -311z m1621 -67 c65 -34 107 -95 115 -168 11 -94 -60 -204 -151 -234 -61 -20 -160 -8 -230 28 -101 53 -97 44 -71 148 47 184 110 253 232 254 38 0 66 -8 105 -28z" />
	</g>
</svg>
